<mxfile host="drawio-plugin" modified="2022-08-17T19:14:47.803Z" agent="5.0 (Windows NT 6.2; Win64; x64) AppleWebKit/537.36 (KHTML, like Gecko) Chrome/87.0.4280.141 Safari/537.36" etag="kTnZauZ0lMxCP9p2NDpr" version="15.5.4" type="embed"><diagram id="JEqR1ZIYFnEfZMCUsHCR" name="Page-1"><mxGraphModel dx="795" dy="512" grid="1" gridSize="10" guides="1" tooltips="1" connect="1" arrows="1" fold="1" page="1" pageScale="1" pageWidth="827" pageHeight="1169" math="0" shadow="0"><root><mxCell id="0"/><mxCell id="1" parent="0"/><mxCell id="wrNmaZZdg3NfsRJvNCuY-1" value="&lt;font style=&quot;font-size: 10px&quot;&gt;websocket发送消息链路&lt;/font&gt;" style="swimlane;html=1;childLayout=stackLayout;startSize=20;rounded=0;shadow=0;labelBackgroundColor=none;strokeWidth=1;fontFamily=Verdana;fontSize=8;align=center;" parent="1" vertex="1"><mxGeometry x="70" y="40" width="450" height="420" as="geometry"/></mxCell><mxCell id="wrNmaZZdg3NfsRJvNCuY-2" value="user" style="swimlane;html=1;startSize=20;" parent="wrNmaZZdg3NfsRJvNCuY-1" vertex="1"><mxGeometry y="20" width="205" height="400" as="geometry"/></mxCell><mxCell id="wrNmaZZdg3NfsRJvNCuY-3" value="Actor2" style="shape=umlActor;verticalLabelPosition=bottom;verticalAlign=top;html=1;outlineConnect=0;" parent="wrNmaZZdg3NfsRJvNCuY-2" vertex="1"><mxGeometry x="70" y="190" width="30" height="60" as="geometry"/></mxCell><mxCell id="42" value="Websocket.Send" style="text;html=1;align=center;verticalAlign=middle;resizable=0;points=[];autosize=1;strokeColor=none;fillColor=none;" vertex="1" parent="wrNmaZZdg3NfsRJvNCuY-2"><mxGeometry x="110" y="80" width="110" height="20" as="geometry"/></mxCell><mxCell id="43" value="" style="endArrow=classic;html=1;rounded=0;fontSize=14;entryX=0;entryY=0.5;entryDx=0;entryDy=0;" edge="1" parent="wrNmaZZdg3NfsRJvNCuY-2" target="19"><mxGeometry width="50" height="50" relative="1" as="geometry"><mxPoint x="120" y="103" as="sourcePoint"/><mxPoint x="195" y="120" as="targetPoint"/></mxGeometry></mxCell><mxCell id="49" value="Actor3" style="shape=umlActor;verticalLabelPosition=bottom;verticalAlign=top;html=1;outlineConnect=0;" vertex="1" parent="wrNmaZZdg3NfsRJvNCuY-2"><mxGeometry x="70" y="290" width="30" height="60" as="geometry"/></mxCell><mxCell id="wrNmaZZdg3NfsRJvNCuY-49" value="websocket后端" style="swimlane;html=1;startSize=20;" parent="wrNmaZZdg3NfsRJvNCuY-1" vertex="1"><mxGeometry x="205" y="20" width="245" height="400" as="geometry"/></mxCell><mxCell id="19" value="&lt;font style=&quot;font-size: 12px&quot;&gt;&lt;pre style=&quot;background-color: rgb(255 , 255 , 255) ; font-family: &amp;#34;jetbrains mono&amp;#34; , monospace&quot;&gt;监听消息协程收到消息&lt;/pre&gt;&lt;/font&gt;" style="rounded=1;whiteSpace=wrap;html=1;shadow=0;labelBackgroundColor=none;strokeWidth=1;fontFamily=Verdana;fontSize=8;align=center;" parent="wrNmaZZdg3NfsRJvNCuY-49" vertex="1"><mxGeometry x="62.5" y="80" width="125" height="45" as="geometry"/></mxCell><mxCell id="31" value="&lt;font&gt;&lt;font&gt;&lt;font style=&quot;font-size: 12px&quot;&gt;发送给其他client&lt;/font&gt;&lt;br&gt;&lt;font style=&quot;font-size: 10px&quot;&gt;c.hub.broadcast &amp;lt;- message&lt;/font&gt;&lt;/font&gt;&lt;br&gt;&lt;/font&gt;" style="rounded=1;whiteSpace=wrap;html=1;shadow=0;labelBackgroundColor=none;strokeWidth=1;fontFamily=Verdana;fontSize=8;align=center;" parent="wrNmaZZdg3NfsRJvNCuY-49" vertex="1"><mxGeometry x="46.25" y="160" width="157.5" height="40" as="geometry"/></mxCell><mxCell id="30" style="edgeStyle=orthogonalEdgeStyle;rounded=0;orthogonalLoop=1;jettySize=auto;html=1;exitX=0.5;exitY=1;exitDx=0;exitDy=0;fontSize=12;fontColor=#000000;" parent="wrNmaZZdg3NfsRJvNCuY-49" source="19" target="31" edge="1"><mxGeometry relative="1" as="geometry"><mxPoint x="124.66666666666674" y="155" as="targetPoint"/></mxGeometry></mxCell><mxCell id="37" value="&lt;font&gt;&lt;font style=&quot;font-size: 12px&quot;&gt;不同client发送消息&lt;br&gt;&lt;/font&gt;w.Write()&lt;br&gt;&lt;/font&gt;" style="rounded=1;whiteSpace=wrap;html=1;shadow=0;labelBackgroundColor=none;strokeWidth=1;fontFamily=Verdana;fontSize=8;align=center;" parent="wrNmaZZdg3NfsRJvNCuY-49" vertex="1"><mxGeometry x="56.25" y="240" width="137.5" height="40" as="geometry"/></mxCell><mxCell id="36" style="edgeStyle=orthogonalEdgeStyle;rounded=0;orthogonalLoop=1;jettySize=auto;html=1;exitX=0.5;exitY=1;exitDx=0;exitDy=0;fontSize=10;fontColor=#000000;entryX=0.5;entryY=0;entryDx=0;entryDy=0;" parent="wrNmaZZdg3NfsRJvNCuY-49" source="31" target="37" edge="1"><mxGeometry relative="1" as="geometry"><mxPoint x="124.66666666666674" y="255" as="targetPoint"/><Array as="points"/></mxGeometry></mxCell><mxCell id="52" style="edgeStyle=orthogonalEdgeStyle;rounded=0;orthogonalLoop=1;jettySize=auto;html=1;exitX=0;exitY=0.5;exitDx=0;exitDy=0;fontSize=10;fontColor=#000000;" edge="1" parent="wrNmaZZdg3NfsRJvNCuY-1" source="37" target="wrNmaZZdg3NfsRJvNCuY-3"><mxGeometry relative="1" as="geometry"/></mxCell><mxCell id="55" style="edgeStyle=orthogonalEdgeStyle;rounded=0;orthogonalLoop=1;jettySize=auto;html=1;exitX=0;exitY=0.5;exitDx=0;exitDy=0;fontSize=10;fontColor=#000000;" edge="1" parent="wrNmaZZdg3NfsRJvNCuY-1" source="37" target="49"><mxGeometry relative="1" as="geometry"><mxPoint x="110" y="349.9999999999999" as="targetPoint"/><Array as="points"><mxPoint x="261" y="340"/></Array></mxGeometry></mxCell><mxCell id="48" value="Actor1" style="shape=umlActor;verticalLabelPosition=bottom;verticalAlign=top;html=1;outlineConnect=0;" vertex="1" parent="1"><mxGeometry x="145" y="140" width="30" height="60" as="geometry"/></mxCell></root></mxGraphModel></diagram></mxfile>